<?xml version="1.0" standalone="no"?>
<!DOCTYPE svg PUBLIC "-//W3C//DTD SVG 20010904//EN"
 "http://www.w3.org/TR/2001/REC-SVG-20010904/DTD/svg10.dtd">
<svg version="1.0" xmlns="http://www.w3.org/2000/svg"
 width="300.000000pt" height="109.000000pt" viewBox="0 0 300.000000 109.000000"
 preserveAspectRatio="xMidYMid meet">
<metadata>
Created by potrace 1.10, written by Peter Selinger 2001-2011
</metadata>
<g transform="translate(0.000000,109.000000) scale(0.100000,-0.100000)"
fill="#000000" stroke="none">
<path d="M10 545 l0 -535 83 2 82 2 -77 3 -78 4 0 54 0 55 313 2 c171 1 284 3
250 5 -58 4 -62 5 -66 31 l-4 27 -2 -27 c-1 -28 -2 -28 -70 -28 l-70 0 -4 48
-3 47 -2 -47 -2 -48 -50 0 -50 0 0 125 0 125 49 0 50 0 4 -47 3 -48 2 48 2 47
69 0 70 0 4 -32 4 -33 1 32 2 32 63 4 c34 2 -25 4 -130 5 l-193 2 0 37 c0 20
-3 34 -6 31 -3 -4 -5 -79 -5 -167 l1 -161 -115 0 -115 0 0 170 0 170 54 0 55
0 4 -47 3 -48 2 53 2 52 -60 0 -60 0 0 69 0 70 53 4 52 3 -52 2 -53 2 0 55 0
55 103 2 c56 1 83 3 60 5 -43 4 -43 4 -43 44 l0 39 55 0 55 0 0 -39 c0 -22 -5
-42 -12 -44 -8 -3 -6 -6 5 -6 14 -1 17 8 17 44 l0 45 50 0 c29 0 50 -5 50 -11
0 -5 5 -7 10 -4 6 3 10 -2 10 -12 0 -16 8 -18 58 -16 34 1 56 6 54 12 -1 6 5
11 13 11 8 0 15 5 15 10 0 6 30 10 69 10 76 0 85 -8 70 -61 -7 -25 -6 -26 32
-19 22 4 56 4 78 0 l38 -7 -5 44 -5 43 56 0 56 0 4 -47 3 -48 2 48 2 47 64 0
65 0 4 -47 3 -48 2 48 2 47 125 0 124 0 4 -142 3 -143 2 143 2 142 50 0 50 0
0 -145 0 -145 -302 -2 c-167 -1 -282 -3 -256 -5 44 -4 47 -6 51 -36 l4 -32 1
33 2 32 64 0 65 0 4 -32 4 -33 1 33 2 32 125 0 124 0 4 -62 3 -63 2 63 2 62
50 0 50 0 0 -69 0 -70 -42 -4 -43 -4 43 -1 42 -2 0 -125 0 -125 -50 0 -50 0
-1 63 c-1 34 -1 91 0 127 l2 65 -79 0 c-79 0 -79 0 -69 -22 9 -21 17 -23 71
-21 l61 1 -60 6 c-51 5 -55 7 -25 11 63 9 90 1 90 -25 0 -34 -18 -77 -29 -70
-5 3 -12 1 -16 -5 -3 -6 4 -10 16 -10 22 0 22 0 3 -14 -13 -10 -23 -11 -31 -4
-9 7 -17 7 -26 0 -8 -7 -18 -6 -31 4 -18 13 -17 14 20 15 21 1 30 3 19 6 -43
11 -38 23 10 24 l50 2 -50 6 c-27 4 -56 10 -62 14 -17 11 -17 -5 -1 -22 7 -8
9 -11 3 -8 -6 3 -11 -10 -13 -30 -2 -35 -2 -36 33 -30 19 3 51 3 70 0 33 -5
35 -8 35 -44 l0 -39 -124 0 -125 0 -4 48 -3 47 -2 -47 -2 -48 -64 0 -65 0 -4
48 -3 47 -2 -47 -2 -47 -47 -4 c-27 -2 88 -4 254 -5 l302 -2 4 -38 4 -37 1 38
2 37 248 2 c136 1 221 3 190 5 -56 4 -57 5 -61 36 l-4 32 -1 -32 -2 -33 -124
0 c-110 0 -125 2 -129 17 -4 17 -5 17 -6 1 -1 -15 -11 -18 -56 -18 l-55 0 0
125 0 125 55 0 54 0 4 -77 3 -78 2 83 2 82 -60 0 -60 0 0 70 0 70 54 0 c54 0
55 0 59 -32 4 -32 4 -32 5 5 l2 37 -60 0 -60 0 0 145 0 144 107 4 c60 2 -169
4 -507 5 -338 0 -677 1 -752 2 l-137 0 -4 33 c-2 17 -5 -3 -5 -45 l-2 -78 -55
0 -55 0 0 85 0 84 83 4 82 3 -82 2 -83 2 0 30 0 30 73 0 c43 0 78 -5 85 -12 8
-8 15 -9 22 -2 13 13 9 14 -97 21 l-83 5 0 29 0 30 65 -2 c36 -1 68 1 72 4 3
4 -28 7 -70 7 l-77 0 0 -535z m758 268 c-15 -2 -42 -2 -60 0 -18 2 -6 4 27 4
33 0 48 -2 33 -4z m22 -24 c0 -12 -38 -17 -49 -6 -8 8 -14 8 -22 0 -13 -13
-42 -6 -33 9 7 10 104 8 104 -3z"/>
<path d="M251 1047 c2 -31 2 -31 6 -4 4 24 33 41 33 19 0 -9 29 -10 45 -1 18
10 85 10 85 0 0 -6 11 -6 28 -2 44 13 255 11 271 -2 17 -14 15 -14 32 0 17 13
87 15 95 2 3 -5 13 -5 24 1 19 10 93 7 123 -5 9 -4 17 -3 17 3 0 12 200 14
215 2 18 -15 22 -15 36 -3 17 13 87 15 95 2 3 -5 13 -5 24 1 27 14 38 12 43
-7 3 -13 5 -14 6 -3 1 12 16 15 69 16 37 1 72 -2 78 -7 7 -6 22 -5 38 1 34 12
93 13 100 1 6 -10 24 -9 41 1 16 9 94 8 100 -3 4 -5 13 -5 23 0 20 11 382 9
399 -2 6 -4 14 -3 17 2 7 11 203 11 233 0 12 -5 25 -4 28 0 6 11 193 11 222 0
13 -5 25 -4 28 2 6 8 89 7 120 -1 6 -2 18 0 28 5 23 10 36 -3 17 -15 -10 -7
-11 -10 -2 -10 6 0 12 -7 12 -15 0 -9 -14 -17 -40 -21 -22 -4 -37 -10 -35 -14
6 -9 31 -7 41 3 4 4 14 7 21 7 22 0 12 -54 -11 -58 -11 -3 -16 0 -12 7 5 7 -3
11 -19 11 -14 0 -24 -4 -20 -9 3 -6 -16 -10 -45 -9 -27 0 -50 4 -50 9 0 5 -12
9 -27 9 -22 0 -24 -3 -15 -12 9 -9 49 -14 117 -15 l105 -2 0 74 0 74 -1370 0
-1370 -1 1 -31z"/>
<path d="M250 970 c0 -31 4 -40 18 -40 13 0 14 2 3 9 -9 6 -12 20 -9 40 2 17
1 31 -4 31 -4 0 -8 -18 -8 -40z"/>
<path d="M1055 1000 c22 -4 48 -10 58 -15 9 -4 17 -3 17 3 0 11 -50 23 -89 21
-19 -1 -15 -4 14 -9z"/>
<path d="M1293 1003 c11 -3 17 -14 17 -34 0 -24 -4 -29 -26 -29 -14 0 -23 4
-19 10 4 6 -5 10 -20 10 -15 0 -24 -4 -20 -10 4 -6 10 -8 15 -5 5 3 11 1 15
-5 9 -15 97 -11 119 5 19 15 19 15 -2 15 -12 0 -22 -4 -22 -10 0 -5 -7 -10
-16 -10 -13 0 -15 8 -12 35 4 32 2 35 -22 34 -16 -1 -19 -3 -7 -6z"/>
<path d="M1408 1003 c6 -2 12 -17 12 -33 0 -22 -5 -30 -22 -33 -21 -4 -20 -4
3 -6 24 -1 27 3 31 39 3 35 1 40 -17 39 -11 0 -14 -3 -7 -6z"/>
<path d="M2405 1000 c-25 -6 -27 -8 -12 -15 9 -4 23 -3 30 3 6 6 26 12 42 15
l30 4 -30 0 c-16 0 -43 -3 -60 -7z"/>
<path d="M2698 1001 c7 -4 24 -6 36 -4 13 3 27 0 30 -6 8 -13 46 -15 46 -2 0
9 -57 21 -100 21 -17 0 -21 -3 -12 -9z"/>
<path d="M359 959 l-6 -26 101 -1 c55 0 108 4 118 9 10 6 19 5 23 -1 8 -13
118 -13 132 1 8 8 13 8 17 0 4 -6 28 -10 54 -10 26 1 39 3 30 6 -9 2 -19 14
-21 26 l-4 22 -2 -22 c-1 -18 -7 -23 -27 -23 -14 0 -23 4 -19 10 4 6 -5 10
-20 10 -14 0 -24 -4 -21 -9 3 -5 -21 -9 -54 -9 -33 0 -57 4 -54 9 3 5 -6 9
-20 9 -14 0 -26 -4 -26 -9 0 -5 -23 -9 -50 -9 -29 -1 -48 3 -45 9 4 5 -5 9
-19 9 -14 0 -26 -4 -26 -10 0 -5 -11 -10 -24 -10 -18 0 -26 6 -28 23 -3 21 -4
20 -9 -4z"/>
<path d="M2711 963 c0 -12 -9 -24 -18 -26 -10 -3 2 -5 27 -4 25 0 35 2 23 4
-13 2 -24 13 -26 26 l-4 22 -2 -22z"/>
<path d="M990 951 c0 -5 7 -12 16 -15 20 -8 109 -8 102 0 -4 3 -27 6 -52 6
-25 0 -46 4 -46 9 0 5 -4 9 -10 9 -5 0 -10 -4 -10 -9z"/>
<path d="M1106 945 c11 -8 40 -14 69 -14 39 1 45 3 25 9 -14 4 -35 5 -47 3
-13 -3 -23 0 -23 6 0 6 -10 11 -22 11 -21 0 -21 0 -2 -15z"/>
<path d="M1465 951 c3 -5 -3 -11 -12 -13 -10 -2 3 -4 28 -4 36 1 43 4 33 14
-14 14 -58 17 -49 3z"/>
<path d="M1576 948 c5 -8 0 -9 -14 -6 -12 4 -22 2 -22 -3 0 -13 23 -11 61 6
l34 14 -33 1 c-23 0 -31 -4 -26 -12z"/>
<path d="M2255 950 c3 -5 -13 -9 -40 -8 -25 0 -48 -2 -51 -5 -3 -3 76 -5 176
-5 100 0 179 2 177 5 -3 2 -26 5 -51 5 -26 0 -44 4 -40 9 3 5 -7 9 -21 9 -15
0 -24 -4 -20 -10 3 -5 -3 -10 -14 -10 -10 0 -22 6 -24 13 -4 10 -6 10 -6 0 -1
-15 -41 -18 -41 -3 0 6 -12 10 -26 10 -14 0 -22 -4 -19 -10z"/>
<path d="M890 939 c-18 -5 -10 -7 28 -8 28 -1 52 1 52 3 0 8 -56 12 -80 5z"/>
<path d="M1786 929 c-21 -21 -90 -26 -101 -9 -4 6 -11 8 -16 4 -22 -13 7 -24
65 -24 57 0 64 2 69 22 8 29 6 29 -17 7z"/>
<path d="M1940 893 l0 -43 -70 0 c-63 0 -70 2 -70 19 0 16 -6 19 -34 18 -46
-3 -59 -17 -17 -17 25 0 32 -4 27 -15 -5 -13 10 -15 98 -15 85 0 103 3 103 15
0 8 -5 15 -11 15 -19 0 8 18 34 23 18 3 15 5 -12 6 -21 0 -38 4 -38 9 0 4 27
5 60 4 l60 -4 -15 -34 -14 -34 149 0 149 0 4 -27 4 -28 2 28 c1 26 3 27 55 27
49 0 55 -2 59 -22 l4 -23 2 23 c1 20 6 22 65 22 59 0 65 -2 69 -22 l4 -23 2
23 c1 20 6 22 50 22 l50 0 4 -47 3 -48 2 48 2 47 64 0 65 0 4 -47 3 -48 2 48
2 47 60 0 60 0 0 -39 c0 -22 -5 -42 -12 -44 -8 -3 -6 -6 5 -6 14 -1 17 8 17
49 l0 50 -450 0 -449 0 -7 34 c-3 19 -4 38 -1 43 3 4 -28 8 -69 8 l-74 0 0
-42z"/>
<path d="M1658 865 c-5 -21 -1 -25 20 -25 21 0 22 2 12 15 -10 12 -10 15 4 15
25 0 19 15 -8 18 -18 1 -25 -4 -28 -23z"/>
<path d="M426 782 c-3 -5 -19 -7 -36 -4 -21 3 -30 0 -30 -9 0 -11 19 -14 80
-14 70 0 80 2 80 18 0 19 -17 22 -39 8 -9 -6 -22 -6 -32 0 -10 5 -20 5 -23 1z"/>
<path d="M1657 744 c3 -8 9 -11 14 -9 4 3 2 -10 -6 -28 l-14 -34 79 0 c76 0
78 0 71 21 -5 11 -5 31 0 43 8 21 6 21 -71 21 -63 0 -77 -3 -73 -14z m130 -17
c3 -4 -9 -8 -28 -8 -32 -1 -33 -2 -7 -8 21 -4 25 -10 18 -20 -7 -12 -11 -12
-24 -2 -13 11 -19 11 -31 1 -11 -10 -18 -9 -30 4 -15 15 -14 16 12 17 17 1 21
3 10 6 -9 2 -15 8 -13 12 6 9 83 7 93 -2z"/>
<path d="M2200 715 c0 -44 0 -45 33 -44 17 1 24 3 15 6 -10 2 -18 8 -18 13 0
5 8 11 18 13 10 3 6 5 -10 6 -16 0 -28 4 -28 9 0 4 31 6 70 4 64 -2 70 -1 70
18 0 18 -6 20 -75 20 l-75 0 0 -45z"/>
<path d="M2460 715 l0 -42 74 0 c72 -1 74 0 67 21 -5 11 -5 31 0 43 8 21 6 22
-67 21 l-74 -1 0 -42z m114 -20 c-7 -18 -16 -19 -32 -3 -8 8 -15 8 -24 0 -9
-7 -18 -6 -32 4 -18 13 -15 14 37 14 46 0 55 -3 51 -15z"/>
<path d="M160 718 c0 -4 17 -8 37 -8 20 0 33 3 29 8 -10 10 -66 10 -66 0z"/>
<path d="M2308 704 c17 -8 15 -22 -5 -27 -10 -3 -3 -5 15 -6 27 -1 33 3 30 17
-2 10 -13 18 -28 19 -14 1 -19 0 -12 -3z"/>
<path d="M361 658 c-1 -26 2 -28 37 -26 36 1 36 1 5 5 -23 3 -33 10 -36 26 -4
18 -5 17 -6 -5z"/>
<path d="M650 661 c0 -18 -8 -20 -62 -24 -38 -2 -23 -3 37 -3 55 -1 85 1 67 3
-24 3 -32 9 -28 18 3 8 1 17 -4 20 -6 4 -10 -3 -10 -14z"/>
<path d="M800 661 c0 -15 -8 -21 -32 -24 -32 -4 -32 -4 5 -5 33 -2 37 0 37 23
0 14 -2 25 -5 25 -3 0 -5 -9 -5 -19z"/>
<path d="M1161 663 c-1 -19 -8 -22 -48 -26 -27 -2 6 -3 72 -3 66 0 90 1 53 3
-59 4 -67 6 -71 26 l-4 22 -2 -22z"/>
<path d="M1473 656 c-4 -7 -15 -16 -23 -19 -8 -3 8 -5 35 -5 28 0 42 2 33 5
-10 2 -18 11 -18 19 0 18 -16 18 -27 0z"/>
<path d="M1800 588 c0 -41 2 -46 20 -41 15 4 19 11 15 24 -6 17 0 19 47 21
l53 1 -65 7 -65 7 65 1 c78 2 70 19 -13 24 l-57 3 0 -47z"/>
<path d="M2055 630 c6 -10 -22 -14 -72 -12 -13 1 -23 -3 -23 -8 0 -5 23 -9 50
-9 28 1 54 -1 57 -5 3 -3 -1 -6 -10 -6 -9 0 -17 -3 -17 -6 0 -6 40 -44 46 -44
1 0 2 22 1 50 -2 41 -5 50 -20 50 -10 0 -15 -4 -12 -10z"/>
<path d="M2200 591 c0 -50 0 -50 25 -39 23 10 23 12 7 24 -15 12 -14 14 13 15
l30 1 -30 8 c-24 6 -17 8 30 8 47 0 54 -2 30 -8 -25 -6 -26 -8 -7 -9 18 -1 22
-5 17 -20 -4 -13 0 -20 15 -24 18 -5 20 0 20 44 0 27 -4 49 -10 49 -5 0 -10
-3 -10 -7 0 -10 -88 -7 -112 2 -16 6 -18 1 -18 -44z"/>
<path d="M2460 592 c0 -45 2 -50 20 -45 21 6 28 23 9 23 -5 0 -7 5 -4 10 3 6
26 10 51 10 40 0 45 -2 39 -19 -4 -13 0 -20 12 -23 15 -4 18 2 18 44 0 47 -1
49 -25 42 -33 -9 -81 -8 -102 1 -16 6 -18 1 -18 -43z m75 15 l50 -4 -54 1
c-39 1 -56 5 -58 16 -3 10 -2 11 4 3 5 -6 31 -14 58 -16z"/>
<path d="M2715 589 c0 -39 3 -45 18 -41 12 3 16 10 12 23 -6 17 0 19 47 21
l53 1 -55 7 -55 7 56 1 c35 1 59 7 62 15 3 9 -14 12 -67 12 l-71 0 0 -46z"/>
<path d="M253 550 c0 -41 2 -58 4 -37 2 20 2 54 0 75 -2 20 -4 3 -4 -38z"/>
<path d="M1941 567 c0 -12 3 -16 6 -9 2 6 16 12 29 12 35 0 30 17 -6 18 -25 1
-30 -3 -29 -21z"/>
<path d="M360 540 c0 -5 6 -10 13 -13 9 -3 9 -8 -2 -21 -8 -9 -11 -19 -7 -23
3 -3 6 -2 6 4 0 13 116 17 125 3 13 -20 25 -9 25 23 l0 32 -80 1 c-44 1 -80
-2 -80 -6z m139 -25 c2 -3 -22 -5 -55 -4 -40 0 -53 3 -39 8 19 8 84 5 94 -4z"/>
<path d="M658 523 c4 -21 9 -23 72 -23 62 0 68 2 72 23 4 21 2 22 -72 23 -75
0 -76 0 -72 -23z m112 -3 c19 -6 9 -8 -35 -8 -42 -1 -54 2 -40 8 24 10 42 10
75 0z"/>
<path d="M2923 543 c53 -4 57 -6 57 -28 0 -22 -4 -24 -57 -28 l-58 -3 63 -2
62 -2 0 35 0 35 -62 -2 -63 -2 58 -3z"/>
<path d="M1161 508 l-1 -28 73 2 72 2 -67 3 c-59 4 -67 6 -71 26 -4 18 -5 17
-6 -5z"/>
<path d="M664 468 c1 -13 -1 -35 -5 -50 -8 -31 -6 -33 22 -17 16 8 18 13 9 24
-9 11 -5 14 22 18 31 4 31 4 -7 6 -27 1 -36 4 -26 10 7 5 10 14 7 20 -12 18
-23 12 -22 -11z"/>
<path d="M791 484 c0 -7 -18 -11 -41 -11 -22 0 -43 -2 -47 -6 -3 -4 16 -7 43
-8 39 -1 44 -3 24 -9 -18 -6 -20 -8 -7 -9 13 -1 17 -6 12 -20 -3 -12 0 -21 10
-25 10 -4 16 -21 17 -53 1 -31 2 -38 5 -18 2 17 0 62 -5 100 -5 39 -10 65 -11
59z"/>
<path d="M958 483 c18 -2 45 -2 60 0 15 2 0 4 -33 4 -33 0 -45 -2 -27 -4z"/>
<path d="M1656 476 c5 -12 22 -16 73 -18 l66 -2 -62 -3 c-57 -4 -62 -6 -71
-32 -9 -25 -8 -29 6 -26 11 1 16 10 15 24 -3 19 2 21 48 21 45 0 50 -2 44 -19
-4 -13 0 -20 13 -23 12 -4 18 1 19 13 1 10 -2 21 -7 24 -6 3 -5 16 0 31 10 24
9 25 -17 20 -41 -9 -85 -9 -111 -1 -18 6 -21 4 -16 -9z"/>
<path d="M1940 440 c0 -41 3 -48 16 -43 11 4 12 9 5 16 -26 26 -11 37 52 36
37 0 55 -3 43 -8 -10 -4 -36 -6 -57 -4 -22 2 -39 -1 -39 -6 0 -4 15 -9 33 -9
66 0 77 -2 75 -13 -2 -6 2 -13 9 -16 7 -3 11 12 10 46 -2 41 -5 51 -19 51 -10
0 -17 -5 -15 -12 1 -7 -14 -11 -43 -11 -29 0 -44 4 -42 12 1 6 -5 11 -13 11
-11 0 -15 -12 -15 -50z"/>
<path d="M2200 440 c0 -54 7 -60 31 -32 11 13 26 17 57 14 23 -2 40 -8 37 -12
-3 -4 2 -11 11 -14 12 -4 15 0 12 17 -3 20 -9 22 -65 23 -34 0 -66 3 -69 7 -7
7 43 11 104 7 26 -1 32 2 32 19 0 22 -35 31 -42 10 -5 -14 -71 -15 -76 -1 -2
7 -10 12 -18 12 -10 0 -14 -14 -14 -50z"/>
<path d="M2460 441 c0 -48 1 -51 20 -41 11 6 17 16 14 25 -5 11 2 15 22 16 24
2 22 3 -11 9 -35 6 -32 7 25 8 46 0 58 -2 40 -8 -14 -4 -18 -8 -9 -9 9 -1 15
-10 15 -22 -1 -12 6 -23 14 -24 12 -2 15 9 15 46 0 47 -1 49 -25 44 -40 -8
-84 -8 -102 0 -16 6 -18 1 -18 -44z"/>
<path d="M923 379 c8 -13 8 -25 -1 -43 l-11 -25 74 0 c58 0 75 4 75 15 0 8 -5
14 -12 14 -9 0 -9 3 0 12 7 7 12 19 12 28 0 13 -13 16 -74 16 -67 0 -72 -2
-63 -17z m97 -9 c11 -7 1 -9 -35 -9 -44 1 -46 2 -20 9 17 4 32 8 35 9 3 0 12
-4 20 -9z m-1 -36 c-8 -10 -15 -12 -17 -5 -2 6 -10 11 -17 11 -7 0 -15 -5 -17
-11 -2 -7 -9 -5 -17 5 -12 14 -8 16 34 16 42 0 46 -2 34 -16z"/>
<path d="M2667 393 l42 -4 4 -47 3 -47 2 48 2 47 64 0 65 0 4 -47 3 -48 2 48
2 47 61 0 61 0 -3 -40 c-2 -21 0 -42 4 -46 4 -4 7 16 7 44 l0 52 -182 -2
c-101 -1 -164 -3 -141 -5z"/>
<path d="M1785 310 c-11 -4 -45 -6 -77 -4 -46 2 -56 0 -51 -12 3 -7 9 -11 14
-9 4 3 2 -10 -6 -29 l-15 -35 69 1 c38 0 74 -3 80 -6 12 -8 10 28 -1 40 -4 3
-2 17 3 31 11 31 10 33 -16 23z m-11 -29 c3 -4 -6 -7 -19 -5 -33 3 -33 -14 0
-18 18 -2 22 -7 16 -17 -8 -12 -12 -12 -25 -2 -13 11 -19 11 -31 1 -11 -10
-18 -9 -30 4 -15 15 -14 16 12 17 17 1 21 3 11 6 -10 2 -18 9 -18 14 0 11 77
12 84 0z"/>
<path d="M2576 313 c-22 -4 -26 -7 -15 -14 9 -6 -1 -8 -31 -8 -41 1 -42 2 -15
9 28 7 27 8 -12 9 l-43 1 0 -45 0 -45 74 0 c69 0 74 1 69 20 -5 17 -14 20 -72
21 -52 1 -60 2 -38 9 16 5 46 7 67 4 34 -4 38 -2 42 21 3 14 5 24 4 24 0 -1
-14 -4 -30 -6z m-1 -73 c4 -6 -12 -10 -39 -10 -25 0 -46 5 -46 10 0 6 18 10
39 10 22 0 43 -4 46 -10z"/>
<path d="M510 296 c0 -18 25 -26 64 -22 16 2 40 0 55 -5 18 -6 4 -8 -46 -6
-70 3 -73 2 -73 -20 0 -22 4 -23 75 -23 l75 0 0 45 0 45 -75 0 c-58 0 -75 -3
-75 -14z m126 -58 c3 -4 -18 -8 -45 -8 -29 0 -51 5 -51 10 0 13 89 10 96 -2z"/>
<path d="M1940 264 l0 -42 74 0 73 -1 -1 42 -1 43 -72 0 -73 0 0 -42z m116 14
c4 -6 3 -8 -4 -4 -6 3 -13 2 -17 -4 -3 -6 4 -10 17 -10 22 0 22 -1 4 -17 -13
-13 -20 -15 -23 -5 -6 15 -30 16 -35 0 -3 -8 -11 -7 -28 5 l-24 17 39 0 c28 0
36 3 25 9 -8 6 -18 7 -22 5 -4 -3 -8 0 -8 5 0 15 67 14 76 -1z"/>
<path d="M133 220 c0 -41 2 -58 4 -37 2 20 2 54 0 75 -2 20 -4 3 -4 -38z"/>
<path d="M803 220 c0 -41 2 -58 4 -37 2 20 2 54 0 75 -2 20 -4 3 -4 -38z"/>
<path d="M160 270 c0 -5 16 -10 36 -10 21 0 33 4 29 10 -3 6 -19 10 -36 10
-16 0 -29 -4 -29 -10z"/>
<path d="M2715 178 l0 -48 138 0 137 0 0 48 0 47 -70 -3 c-47 -3 -70 -8 -70
-16 0 -15 20 -36 35 -36 5 0 1 7 -9 15 -18 14 -14 15 42 15 34 0 62 -4 62 -8
0 -5 -18 -7 -40 -5 -22 2 -40 -2 -40 -7 0 -6 13 -10 30 -10 23 0 28 -4 23 -16
-4 -11 -9 -12 -16 -5 -14 14 -40 14 -32 1 3 -5 2 -10 -4 -10 -5 0 -12 6 -14
13 -4 10 -6 10 -6 0 -1 -19 -19 -16 -24 5 -4 15 -5 15 -6 -2 -1 -16 -3 -16
-17 -5 -13 10 -17 10 -25 -2 -6 -10 -9 -10 -9 -1 0 14 -27 17 -32 3 -1 -5 -12
-3 -22 5 -20 14 -20 14 0 15 10 1 31 0 47 -1 15 -1 27 3 27 9 0 5 -18 9 -41 8
-22 -2 -43 1 -45 5 -3 4 20 8 50 8 77 0 71 17 -7 22 l-62 3 0 -47z"/>
<path d="M660 115 c4 -11 4 -32 -1 -47 -6 -24 -5 -28 13 -28 17 0 19 4 14 26
-6 23 -4 26 12 22 11 -3 26 -2 33 3 9 6 0 9 -26 9 -22 0 -35 4 -28 8 6 4 35 5
65 3 29 -3 43 -7 30 -9 -12 -2 -20 -8 -16 -13 3 -5 10 -7 15 -3 6 3 8 -5 5
-20 -3 -19 0 -26 11 -26 9 0 13 -6 10 -14 -5 -13 25 -15 211 -13 119 1 180 3
135 5 -46 1 -83 7 -83 12 0 16 147 10 181 -7 38 -19 250 -15 257 5 4 14 42 17
42 3 0 -5 -8 -12 -17 -14 -14 -4 -14 -5 3 -6 14 -1 24 6 27 18 5 19 -3 20
-367 18 -204 0 -350 -3 -323 -4 62 -5 61 -23 -3 -23 -48 0 -49 1 -56 35 -3 19
-4 45 -2 58 4 21 2 22 -73 22 -72 0 -76 -1 -69 -20z m760 -85 c0 -5 -22 -10
-50 -10 -27 0 -50 5 -50 10 0 6 23 10 50 10 28 0 50 -4 50 -10z"/>
<path d="M1940 95 l0 -45 -97 0 c-185 -1 -242 -5 -255 -18 -9 -9 -8 -12 10
-12 12 0 22 5 22 10 0 6 20 10 45 10 51 0 62 -19 13 -21 -31 -2 -31 -2 -5 -6
15 -2 41 3 59 11 35 18 68 21 68 7 0 -5 -12 -12 -27 -14 -16 -2 19 -5 76 -6
57 0 102 2 99 5 -3 3 -36 5 -72 5 -36 0 -66 4 -66 10 0 5 39 9 87 9 83 0 85 1
70 18 -30 33 -21 42 43 42 33 0 60 -4 60 -10 0 -5 -23 -8 -55 -5 -31 2 -55 0
-55 -6 0 -5 25 -9 56 -9 49 0 55 -2 44 -15 -10 -12 -9 -15 6 -15 16 0 19 8 19
50 0 53 -5 59 -25 35 -12 -15 -90 -18 -90 -4 0 4 -7 9 -15 13 -12 4 -15 -4
-15 -39z"/>
<path d="M2198 87 c-3 -40 0 -47 15 -47 13 0 17 6 15 23 -3 20 1 22 40 22 57
0 53 13 -5 18 -48 3 -48 3 9 5 l58 2 -10 -26 c-14 -36 -13 -44 10 -44 17 0 20
7 20 48 l0 47 -74 0 -74 0 -4 -48z"/>
<path d="M2460 88 c0 -42 3 -48 20 -48 18 0 19 3 10 20 -9 16 -8 22 5 26 8 3
22 4 30 0 8 -3 15 -1 15 4 0 5 -17 11 -37 13 -21 2 -9 4 27 4 36 0 55 -2 43
-4 -25 -5 -32 -23 -9 -23 9 0 12 -7 9 -20 -4 -15 0 -20 13 -20 16 0 19 8 19
48 l0 47 -72 0 -73 0 0 -47z"/>
<path d="M233 43 c9 -2 17 -11 17 -19 0 -8 9 -14 23 -13 16 1 18 2 5 6 -10 2
-18 9 -18 14 0 14 38 11 43 -3 4 -10 7 -10 18 0 15 14 39 16 39 3 0 -5 -8 -11
-17 -13 -10 -3 65 -5 166 -6 102 -1 182 0 179 3 -3 3 -42 6 -87 6 -95 1 -109
16 -18 22 34 2 -35 3 -153 4 -118 0 -207 -1 -197 -4z"/>
<path d="M2663 43 c26 -2 47 -8 47 -13 0 -5 -21 -11 -47 -13 -27 -2 36 -4 140
-4 177 -1 187 0 187 18 0 18 -10 19 -187 17 -104 -1 -167 -3 -140 -5z m187
-13 c0 -5 -14 -10 -31 -10 -17 0 -28 4 -24 10 3 6 17 10 31 10 13 0 24 -4 24
-10z"/>
<path d="M2107 13 c18 -2 50 -2 70 0 21 2 7 4 -32 4 -38 0 -55 -2 -38 -4z"/>
<path d="M2367 13 c18 -2 50 -2 70 0 21 2 7 4 -32 4 -38 0 -55 -2 -38 -4z"/>
</g>
</svg>
